<svg viewBox="0 0 16.933333 16.933334">
  <g transform="translate(0 -280.067)">
    <path
      d="m1.3229151 283.24166c-.43516027 0-.79375007.35859-.79375007.79375v7.40833c0 .43516.3585898.79375.79375007.79375h3.7088179c-.00611.0503-.016113.1077-.033591.17467-.061934.23681-.2135134.55408-.5978948.88315h-.4325334c-.3528616 0-.3528616.52917 0 .52917h3.1760342c.352864 0 .352864-.52917 0-.52917h-2.0117644c.2063354-.26712.3205216-.52833.3782722-.74931.030202-.11558.041868-.21675.048059-.30851h1.5854332c.357788.005.357788-.53421 0-.52916h-5.8208329c-.1511512 0-.2645834-.11343-.2645834-.26459v-1.32291h6.0854163c.357796.005.357796-.53422 0-.52917h-6.0854163v-5.55625c0-.15116.1134322-.26458.2645834-.26458h10.0541669c.151159 0 .264583.11342.264583.26458-.0049.35764.534064.35764.529167 0 0-.43516-.35859-.79375-.79375-.79375zm7.4083329 1.58647c-.43516 0-.794784.36015-.794784.7953v7.40833c0 .43515.359624.79272.794784.79272h3.173966c.352864 0 .352864-.52917 0-.52917h-3.173966c-.151151 0-.265618-.11238-.265618-.26355v-1.3224h3.439584c.352862 0 .352862-.52917 0-.52917h-3.439584v-4.76405h5.293218v.7953c0 .35286.529166.35286.529166 0v-1.58801c0-.43516-.359621-.7953-.794781-.7953zm-6.8827831.52555c-.1469496.002-.2642262.12281-.2614824.26975v.52916c0 .35287.5291666.35287.5291666 0v-.52916c.00278-.14923-.118438-.27146-.2676842-.26975zm6.8827831.004h4.761985c.151148 0 .265615.11446.265615.26562v.26355h-5.293218v-.26355c0-.15117.114467-.26562.265618-.26562zm-6.8827831 1.58388c-.1469496.002-.2642262.12282-.2614824.26975v1.58544c0 .35286.5291666.35286.5291666 0v-1.58544c.00278-.14923-.118438-.27145-.2676842-.26975zm7.4083331 0c-.146947.002-.264226.12283-.261482.26975v.52917c0 .35286.529166.35286.529166 0v-.52917c.0028-.14923-.118438-.27145-.267684-.26975zm4.236435 1.06247c-.435161 0-.793235.35756-.793235.79272v4.23488c0 .43516.358074.79272.793235.79272h2.117182c.43516 0 .792716-.35756.792716-.79272v-4.23488c0-.43516-.357556-.79272-.792716-.79272zm-4.236435.52555c-.146172.002-.263131.121-.261482.26717v1.58801c0 .35286.529166.35286.529166 0v-1.58801c.0016-.14847-.119216-.26885-.267684-.26717zm4.236435.004h2.117182c.151141 0 .263549.11239.263549.26355v.26588h-2.644283v-.26613c0-.15116.112382-.26355.263552-.26355zm-.263552 1.05885h2.644283v2.64428h-2.644283zm-7.144782 1.58801h.529683c.352864 0 .352864-.52968 0-.52968h-.542346c-.365524.0169-.340201.54662.01267.52968zm4.764051 1.05627c-.352865 0-.352865.52917 0 .52917h.529166c.352865 0 .352865-.52917 0-.52917zm2.380731.52917h2.644283v.26613c0 .15116-.112408.26355-.263549.26355h-2.117182c-.15117 0-.263552-.11239-.263552-.26355z"
      font-variant-ligatures="normal"
      font-variant-position="normal"
      font-variant-caps="normal"
      font-variant-numeric="normal"
      font-variant-alternates="normal"
      font-feature-settings="normal"
      text-indent="0"
      text-align="start"
      text-decoration-line="none"
      text-decoration-style="solid"
      text-decoration-color="rgb(0,0,0)"
      text-transform="none"
      text-orientation="mixed"
      white-space="normal"
      shape-padding="0"
      isolation="auto"
      mix-blend-mode="normal"
      solid-color="rgb(0,0,0)"
      solid-opacity="1"
      vector-effect="none"
    />
  </g>
</svg>
