<svg viewBox="0 0 512 512">
  <g>
    <path
      d="m448.823 34.274h-32.066v-11.467c0-12.576-10.231-22.807-22.807-22.807h-3.443c-12.576 0-22.807 10.231-22.807 22.807v11.467h-223.4v-11.467c0-12.576-10.231-22.807-22.807-22.807h-3.444c-12.576 0-22.807 10.231-22.807 22.807v11.467h-32.066c-20.705 0-37.55 16.845-37.55 37.55v143.041c0 4.142 3.358 7.5 7.5 7.5s7.5-3.358 7.5-7.5v-58.412h430.748v194.118c0 9.441-7.681 17.122-17.122 17.122h-50.063c-17.712 0-32.122 14.41-32.122 32.122v50.063c0 9.441-7.681 17.122-17.122 17.122h-291.769c-12.434 0-22.55-10.116-22.55-22.55l.004-197.18c0-4.142-3.358-7.5-7.5-7.5s-7.5 3.358-7.5 7.5l-.004 185.492v.005 41.733c0 20.678 16.822 37.5 37.5 37.5h385.748c20.678 0 37.5-16.822 37.5-37.5v-402.676c0-20.705-16.845-37.55-37.551-37.55zm-61.756 415.604v-50.063c0-9.441 7.681-17.122 17.122-17.122h50.063c2.605 0 5.136-.32 7.563-.908l-75.655 75.655c.588-2.426.907-4.957.907-7.562zm84.307 24.622c0 12.407-10.093 22.5-22.5 22.5h-385.748c-12.407 0-22.5-10.093-22.5-22.5v-.047c6.284 4.735 14.094 7.547 22.55 7.547h304.084c10.03 0 19.46-3.906 26.552-10.999l77.562-77.562zm-88.674-451.693c0-4.305 3.502-7.807 7.807-7.807h3.443c4.305 0 7.807 3.502 7.807 7.807v11.467h-19.057zm-272.457 0c0-4.305 3.502-7.807 7.807-7.807h3.444c4.305 0 7.807 3.502 7.807 7.807v11.467h-19.057v-11.467zm361.131 118.647h-430.748v-69.63c0-12.434 10.116-22.55 22.55-22.55h32.066v22.052c0 12.576 10.231 22.807 22.807 22.807 4.142 0 7.5-3.358 7.5-7.5s-3.358-7.5-7.5-7.5c-4.305 0-7.807-3.502-7.807-7.807v-22.052h257.458v22.052c0 12.576 10.231 22.807 22.807 22.807 4.142 0 7.5-3.358 7.5-7.5s-3.358-7.5-7.5-7.5c-4.305 0-7.807-3.502-7.807-7.807v-22.052h66.124c12.435 0 22.551 10.116 22.551 22.55v69.63zm-215.374 109.678c-4.142 0-7.5 3.358-7.5 7.5v55.736c0 2.516 1.292 4.858 3.367 6.258l32.533 21.485c1.273.841 2.708 1.243 4.126 1.243 2.435 0 4.823-1.184 6.265-3.368 2.283-3.457 1.331-8.109-2.125-10.392l-29.166-19.26v-51.701c0-4.143-3.358-7.501-7.5-7.501zm56.897 128.098c2.929 2.929 7.678 2.929 10.606 0 18.058-18.057 28.002-42.03 28.002-67.503 0-52.662-42.844-95.505-95.505-95.505s-95.505 42.844-95.505 95.505 42.844 95.505 95.505 95.505c12.87 0 25.369-2.53 37.148-7.521 3.814-1.616 5.596-6.018 3.98-9.832-1.616-3.813-6.017-5.598-9.832-3.98-9.918 4.202-20.448 6.333-31.297 6.333-44.391 0-80.505-36.115-80.505-80.505s36.115-80.505 80.505-80.505 80.505 36.115 80.505 80.505c0 21.466-8.384 41.673-23.608 56.897-2.928 2.929-2.928 7.678.001 10.606z"
    />
  </g>
</svg>
