<svg viewBox="0 0 512 512">
  <g>
    <path
      d="m360.89 88.168v55.737c0 2.462-1.27 4.697-3.314 5.831-3.883 2.157-8.203-1.861-8.478-2.123-2.923-2.891-7.639-2.889-10.562.016-2.939 2.921-2.953 7.671-.032 10.61 3.201 3.222 9.398 7.201 16.622 7.201 3.107 0 6.404-.736 9.734-2.585 6.806-3.779 11.035-11.04 11.035-18.951v-55.736c0-4.144-3.359-7.503-7.503-7.503s-7.502 3.359-7.502 7.503z"
    />
    <path
      d="m424.24 150.529c-7.094 0-13.929-2.871-18.286-7.679-2.782-3.07-7.527-3.303-10.598-.522-3.07 2.782-3.304 7.527-.522 10.598 7.154 7.895 18.147 12.608 29.406 12.608 13.911 0 25.587-8.838 27.761-21.015 1.629-9.122-2.565-21.059-19.222-27.203-8.573-3.162-16.541-6.609-18.809-7.603-1.681-1.298-2.49-3.324-2.176-5.514.202-1.407 1.208-4.842 6.18-6.339 10.234-3.082 19.597 4.383 19.802 4.548 3.171 2.635 7.879 2.216 10.536-.944 2.666-3.172 2.257-7.905-.915-10.571-.628-.528-15.59-12.87-33.751-7.4-9.051 2.726-15.452 9.844-16.706 18.574-1.172 8.167 2.366 16.023 9.236 20.502.331.216.679.406 1.04.567.395.176 9.788 4.357 20.368 8.259 3.248 1.198 10.691 4.618 9.643 10.487-.757 4.25-5.823 8.647-12.987 8.647z"
    />
    <path
      d="m154.73 211.163c-4.144 0-7.503 3.359-7.503 7.503v67.958c0 4.144 3.359 7.503 7.503 7.503s7.503-3.359 7.503-7.503v-27.642h32.023v27.642c0 4.144 3.359 7.503 7.503 7.503s7.503-3.359 7.503-7.503v-67.958c0-4.144-3.359-7.503-7.503-7.503s-7.503 3.359-7.503 7.503v25.311h-32.023v-25.311c0-4.144-3.359-7.503-7.503-7.503z"
    />
    <path
      d="m95.536 286.624v-22.057c4.05-.021 8.782-.043 11.42-.043 14.919 0 27.056-11.969 27.056-26.681s-12.137-26.68-27.056-26.68h-18.923c-4.032-.08-7.573 3.478-7.503 7.503v67.958c0 4.144 3.359 7.503 7.503 7.503s7.503-3.359 7.503-7.503zm11.42-60.455c6.532 0 12.05 5.346 12.05 11.675s-5.519 11.675-12.05 11.675c-2.619 0-7.293.021-11.329.042-.021-4.163-.056-19.039-.068-23.392z"
    />
    <path
      d="m244.165 286.624v-22.057c4.05-.021 8.782-.043 11.42-.043 14.919 0 27.056-11.969 27.056-26.681s-12.137-26.68-27.056-26.68h-18.923c-4.032-.08-7.573 3.478-7.503 7.503v67.958c0 4.144 3.359 7.503 7.503 7.503 4.145 0 7.503-3.359 7.503-7.503zm11.421-60.455c6.532 0 12.05 5.346 12.05 11.675s-5.519 11.675-12.05 11.675c-2.619 0-7.293.021-11.329.042-.021-4.163-.056-19.039-.068-23.392z"
    />
    <path
      d="m398.399 275.068h-42.428c1.472-7.353 2.229-14.861 2.229-22.424 0-7.5-.738-14.83-2.132-21.928 13.14 5.09 27.24 7.753 41.418 7.753 19.98 0 39.65-5.231 56.882-15.127 3.593-2.064 4.833-6.649 2.77-10.243s-6.648-4.832-10.243-2.77c-14.961 8.592-32.046 13.134-49.408 13.134-16.134 0-32.15-3.952-46.315-11.43-.192-.102-.388-.189-.585-.272-9.153-23.648-26-43.493-47.457-56.445-3.319-10.037-5.007-20.537-5.007-31.217 0-54.79 44.574-99.365 99.365-99.365s99.365 44.575 99.365 99.365c0 23.958-8.644 47.097-24.34 65.154-2.719 3.128-2.388 7.866.741 10.585 1.42 1.235 3.173 1.84 4.919 1.84 2.096 0 4.182-.874 5.665-2.581 18.07-20.789 28.021-47.424 28.021-74.999 0-63.064-51.306-114.37-114.37-114.37s-114.37 51.306-114.37 114.37c0 7.604.751 15.13 2.223 22.504-12.653-4.878-26.388-7.56-40.74-7.56h-131.001c-20.927 0-41.381 5.739-59.151 16.597-3.536 2.16-4.651 6.778-2.491 10.314 2.161 3.536 6.779 4.65 10.314 2.491 15.414-9.418 33.163-14.396 51.328-14.396h130.998c54.366 0 98.596 44.23 98.596 98.595 0 7.587-.873 15.107-2.574 22.423h-17.416c-49.531 0-91.752 31.867-107.257 76.172h-102.347c-54.365 0-98.595-44.23-98.595-98.595 0-23.052 8.12-45.475 22.866-63.14 2.655-3.181 2.229-7.913-.953-10.568-3.18-2.654-7.911-2.229-10.567.952-16.993 20.36-26.352 46.198-26.352 72.758 0 62.639 50.961 113.601 113.601 113.601h98.23c-1.458 7.252-2.227 14.749-2.227 22.424 0 62.639 50.961 113.601 113.601 113.601h5.713c4.144 0 7.503-3.359 7.503-7.503s-3.359-7.503-7.503-7.503h-5.713c-54.365 0-98.595-44.23-98.595-98.595s44.23-98.595 98.595-98.595h75.195c54.365 0 98.595 44.23 98.595 98.596 0 54.365-44.23 98.595-98.595 98.595h-31.99c-4.144 0-7.503 3.359-7.503 7.503s3.359 7.503 7.503 7.503h31.99c62.64 0 113.601-50.961 113.601-113.601s-50.962-113.603-113.602-113.603z"
    />
    <path
      d="m366.41 405.607c-4.144 0-7.503 3.359-7.503 7.503s3.359 7.503 7.503 7.503h13.368l-6.882 33.105c-.843 4.057 1.761 8.029 5.819 8.873.515.107 1.029.158 1.535.158 3.48 0 6.602-2.436 7.338-5.977l7.516-36.159h14.517l-6.882 33.105c-.843 4.057 1.761 8.029 5.819 8.873.515.107 1.029.158 1.535.158 3.48 0 6.602-2.436 7.338-5.977l7.516-36.159h16.618c4.144 0 7.503-3.359 7.503-7.503s-3.359-7.503-7.503-7.503h-13.499l5.994-28.835h16.571c4.144 0 7.503-3.359 7.503-7.503s-3.359-7.503-7.503-7.503h-13.451l6.735-32.401c.843-4.057-1.761-8.029-5.819-8.873-4.058-.843-8.03 1.762-8.872 5.819l-7.37 35.455h-14.517l6.735-32.401c.843-4.057-1.761-8.029-5.819-8.873-4.055-.843-8.03 1.762-8.872 5.819l-7.37 35.455h-16.536c-4.144 0-7.503 3.359-7.503 7.503s3.359 7.503 7.503 7.503h13.416l-5.994 28.835zm37.807-28.835h14.517l-5.994 28.835h-14.517z"
    />
    <path
      d="m342.544 410.212c-3.177-2.663-7.909-2.245-10.57.929-.623.743-1.297 1.439-2.003 2.067-3.618 3.222-8.222 4.856-13.684 4.856-14.625 0-26.523-11.898-26.523-26.523s11.898-26.523 26.523-26.523c5.316 0 10.442 1.565 14.823 4.525 3.434 2.32 8.097 1.416 10.418-2.016 2.319-3.433 1.417-8.098-2.016-10.418-6.872-4.643-14.903-7.097-23.225-7.097-22.899 0-41.528 18.63-41.528 41.528 0 22.899 18.629 41.529 41.528 41.529 9.124 0 17.306-2.993 23.663-8.656 1.248-1.11 2.433-2.332 3.522-3.632 2.663-3.174 2.247-7.906-.928-10.569z"
    />
  </g>
</svg>
