<svg viewBox="0 0 64 64">
  <g>
    <path
      d="m58.234 21h-1.234v-15c0-2.757-2.243-5-5-5h-4c-2.757 0-5 2.243-5 5v3h-14v-5c0-1.654-1.346-3-3-3h-16c-1.654 0-3 1.346-3 3v12c0 1.654 1.346 3 3 3h7v2h-11.234c-2.628 0-4.766 2.138-4.766 4.766 0 .198.013.396.037.591l3.559 28.469c.297 2.38 2.33 4.174 4.728 4.174h5.373l5.362 3.575c.419.278.905.425 1.406.425 1.397 0 2.535-1.138 2.535-2.536v-1.464h30.676c2.398 0 4.432-1.794 4.729-4.174l3.559-28.468c.023-.197.036-.394.036-.592 0-2.628-2.138-4.766-4.766-4.766zm-13.234-15c0-1.654 1.346-3 3-3h4c1.654 0 3 1.346 3 3v5h-10zm0 7h10v2h-10zm6 18v-14h4v14zm3.382 2-3.829 7.658c-.211.423-.895.422-1.105 0l-3.83-7.658zm-9.382-16h4v14h-4zm-16-1v-5h14v10h-24v-2h7c1.654 0 3-1.346 3-3zm-19 1c-.552 0-1-.449-1-1v-12c0-.551.448-1 1-1h16c.552 0 1 .449 1 1v12c0 .551-.448 1-1 1zm50.979 9.108-3.559 28.469c-.173 1.381-1.353 2.423-2.744 2.423h-32.676v3.464c0 .401-.501.666-.833.446l-5.864-3.91h-5.979c-1.392 0-2.571-1.042-2.744-2.422l-3.559-28.47c-.014-.114-.021-.228-.021-.342 0-1.525 1.24-2.766 2.766-2.766h37.234v9.236l4.382 8.764h-5.382v2h8c.998 0 1.895-.555 2.342-1.447l4.658-9.317v-9.236h1.234c1.526 0 2.766 1.241 2.766 2.766 0 .114-.007.228-.021.342z"
    />
    <path
      d="m35 34.101v-6.101c0-1.654-1.346-3-3-3-1.471 0-2.692 1.066-2.946 2.464-3.642 2.921-8.189 4.536-12.865 4.536h-4.189c-2.757 0-5 2.243-5 5v4c0 2.757 2.243 5 5 5h1.198l2.001 9h5.801v-8.412c2.927.706 5.683 2.045 8.054 3.947.254 1.399 1.475 2.465 2.946 2.465 1.654 0 3-1.346 3-3v-6.101c2.279-.465 4-2.484 4-4.899s-1.721-4.434-4-4.899zm-20 9.899h-3c-1.302 0-2.402-.839-2.816-2h3.816v-2h-4v-2h4v-2h-3.816c.414-1.161 1.514-2 2.816-2h3zm4 9h-2.198l-1.555-7h.943c.945 0 1.882.084 2.811.213v6.787zm10-5.008c-3.53-2.431-7.703-3.801-12-3.956v-10.072c4.297-.156 8.47-1.525 12-3.956zm4 2.008c0 .551-.448 1-1 1s-1-.449-1-1v-22c0-.551.448-1 1-1s1 .449 1 1zm2-8.184v-5.631c1.161.414 2 1.514 2 2.816s-.839 2.401-2 2.815z"
    />
    <path
      d="m21.553 7.658-4.764-2.382c-.361-.18-.767-.276-1.171-.276-1.443 0-2.618 1.174-2.618 2.618v4.764c0 1.444 1.175 2.618 2.618 2.618.404 0 .81-.096 1.171-.276l4.764-2.382c.892-.446 1.447-1.344 1.447-2.342s-.555-1.896-1.447-2.342zm-.895 2.895-4.764 2.382c-.386.196-.894-.116-.895-.553v-4.764c.001-.341.278-.618.619-.618.096 0 .191.022.276.065l4.764 2.382c.211.106.342.317.342.553s-.131.447-.342.553z"
    />
    <path d="m42 45h14v2h-14z" />
    <path d="m42 49h14v2h-14z" />
    <path d="m50 53h2v2h-2z" />
    <path d="m54 53h2v2h-2z" />
    <path d="m42 53h2v2h-2z" />
    <path d="m46 53h2v2h-2z" />
  </g>
</svg>
