<svg viewBox="0 0 239.1 33.5">
  <polygon
    fill="#004ABF"
    points="8.3,33.9 0.8,26.3 15.3,11.9 16.4,13 3.1,26.3 8.3,31.6 23.1,16.8 8.3,2 3.1,7.2 10,14.1 8.9,15.3 
		0.8,7.2 8.3,-0.3 25.4,16.8 	"
  />
  <path
    fill="#004ABF"
    d="M42.5,2.8h15.6v1.4H44v11.5h11.8V17H44v13.5h14.6v1.4h-16V2.8z"
  />
  <path
    fill="#004ABF"
    d="M72.5,2.8H74l5.6,17.4c0.3,0.9,0.5,1.8,0.8,2.6c0.3,0.8,0.5,1.6,0.8,2.4c0.3,0.8,0.5,1.6,0.8,2.4
			c0.3,0.8,0.5,1.6,0.9,2.5h0.2c0.3-0.9,0.6-1.7,0.9-2.5c0.3-0.8,0.5-1.6,0.8-2.4c0.3-0.8,0.5-1.6,0.8-2.4c0.3-0.8,0.5-1.7,0.8-2.6
			l5.6-17.4h1.5l-9.6,29h-1.5L72.5,2.8z"
  />
  <path d="M109.5,2.8h1.5v12.8h16.2V2.8h1.5v29h-1.5V17h-16.2v14.8h-1.5V2.8z" />
  <path
    d="M153.5,19.9l-8.7-17.1h1.6l4.6,9.3c0.5,1.1,1.1,2.2,1.6,3.2c0.5,1,1.1,2.1,1.6,3.1h0.2c0.6-1.1,1.2-2.1,1.7-3.1
			c0.5-1,1.1-2.1,1.5-3.2l4.6-9.3h1.5l-8.7,17.1v11.9h-1.5V19.9z"
  />
  <path
    d="M189.3,32.3c-1.2,0-2.3-0.2-3.5-0.5c-1.1-0.3-2.2-0.9-3.1-1.8c-0.9-0.9-1.6-2-2.2-3.5c-0.5-1.5-0.8-3.3-0.8-5.6V2.8h1.5
			v17.9c0,2,0.2,3.7,0.7,5s1,2.4,1.8,3.2c0.7,0.8,1.6,1.3,2.6,1.7c1,0.3,2,0.5,3,0.5c1.1,0,2.1-0.2,3.1-0.5c1-0.3,1.9-0.9,2.6-1.7
			c0.8-0.8,1.4-1.8,1.8-3.2c0.5-1.3,0.7-3,0.7-5V2.8h1.5v18.2c0,2.2-0.3,4.1-0.8,5.6c-0.6,1.5-1.3,2.6-2.2,3.5
			c-0.9,0.9-1.9,1.5-3.1,1.8C191.7,32.2,190.5,32.3,189.3,32.3z"
  />
  <path
    d="M219.2,2.8h1.6l12.8,21.2l3.3,5.7h0.2c-0.2-2.8-0.2-5.5-0.2-8.2V2.8h1.5v29h-1.6l-12.8-21.2l-3.3-5.7h-0.2
			c0.1,1.4,0.1,2.7,0.1,4s0,2.6,0,4v18.9h-1.4V2.8z"
  />
</svg>
