<svg enable-background="new 0 0 512 512" viewBox="0 0 512 512">
  <g>
    <path
      d="m190.984 177.233h200.156c4.142 0 7.5-3.358 7.5-7.5s-3.358-7.5-7.5-7.5h-200.156c-4.142 0-7.5 3.358-7.5 7.5s3.358 7.5 7.5 7.5z"
    />
    <path
      d="m190.984 232.821h200.156c4.142 0 7.5-3.358 7.5-7.5s-3.358-7.5-7.5-7.5h-200.156c-4.142 0-7.5 3.358-7.5 7.5s3.358 7.5 7.5 7.5z"
    />
    <path
      d="m190.984 288.409h200.156c4.142 0 7.5-3.358 7.5-7.5s-3.358-7.5-7.5-7.5h-200.156c-4.142 0-7.5 3.358-7.5 7.5s3.358 7.5 7.5 7.5z"
    />
    <path
      d="m464.701 96.022c-.065-1.88-.85-3.718-2.184-5.051l-88.774-88.774c-1.388-1.388-3.342-2.197-5.304-2.197h-221.616c-16.219 0-29.413 13.195-29.413 29.414v5.648h-5.648c-15.166 0-27.685 11.538-29.247 26.296h-5.815c-16.219 0-29.414 13.195-29.414 29.414v252.111c0 4.142 3.358 7.5 7.5 7.5s7.5-3.358 7.5-7.5v-252.112c0-7.948 6.466-14.414 14.414-14.414h5.648v379.933c0 16.219 13.195 29.414 29.414 29.414h190.794c4.142 0 7.5-3.358 7.5-7.5s-3.358-7.5-7.5-7.5h-190.794c-7.948 0-14.414-6.466-14.414-14.414v-391.815c0-7.948 6.466-14.414 14.414-14.414h5.648v40.854c0 4.142 3.358 7.5 7.5 7.5s7.5-3.358 7.5-7.5v-61.501c0-7.948 6.466-14.414 14.413-14.414h214.116v59.364c0 16.217 13.193 29.41 29.41 29.41h59.364v317.454c0 7.948-6.466 14.414-14.414 14.414h-288.476c-7.948 0-14.413-6.466-14.413-14.414v-297.627c0-4.142-3.358-7.5-7.5-7.5s-7.5 3.358-7.5 7.5v297.627c0 16.219 13.195 29.414 29.413 29.414h267.829v5.648c0 7.948-6.466 14.414-14.414 14.414h-64.997c-4.142 0-7.5 3.358-7.5 7.5s3.358 7.5 7.5 7.5h44c-1.43 6.453-7.188 11.296-14.065 11.296h-288.476c-7.948 0-14.414-6.466-14.414-14.414v-107.018c0-4.142-3.358-7.5-7.5-7.5s-7.5 3.358-7.5 7.5v107.018c0 16.219 13.195 29.414 29.414 29.414h288.477c15.166 0 27.685-11.538 29.247-26.296h5.815c16.219 0 29.414-13.195 29.414-29.414v-5.648h5.648c16.219 0 29.414-13.195 29.414-29.414v-324.954c-.001-.084-.011-.168-.014-.252zm-74.351-7.248c-7.946 0-14.41-6.464-14.41-14.41v-48.758l63.168 63.168z"
    />
  </g>
</svg>
