<?xml version="1.0" encoding="utf-8"?>
<svg
  version="1.1"
  xmlns="http://www.w3.org/2000/svg"
  xmlns:xlink="http://www.w3.org/1999/xlink"
  x="0px"
  y="0px"
  viewBox="0 0 680 680"
  style="enable-background: new 0 0 680 680"
  xml:space="preserve"
>
  <path
    d="M167.3,245.6h123.4v9.8h-112v73.8H284v9.8H178.6v81H292v9.8H167.3V245.6z M301.7,245.6h13.1l58.1,81l59.4-81L513,142.7
		L380.4,335.2l68.4,94.7h-13.6l-62.2-86.2l-62.4,86.2h-13.4l68.9-94.7L301.7,245.6z M453.6,255.4v-9.8h140.6v9.8h-64.8v174.4h-11.3
		V255.4H453.6z M13,245.6h14.1L222,537.3l-80.5-107.4L24.8,259.6l-0.5,170.3H13V245.6z M593,417.1c-2.3,0-4-1.8-4-4.1s1.7-4.1,4-4.1
		c2.3,0,4,1.8,4,4.1S595.4,417.1,593,417.1z M604.1,406.3h6.1c0.1,3.3,2.5,5.5,6,5.5c3.9,0,6.2-2.4,6.2-6.8v-28.1h6.2V405
		c0,8-4.6,12.6-12.3,12.6C609.1,417.6,604.1,413.1,604.1,406.3z M636.6,405.9h6.1c0.5,3.8,4.2,6.2,9.5,6.2c5,0,8.6-2.6,8.6-6.1
		c0-3-2.3-4.8-7.6-6.1l-5.1-1.2c-7.2-1.7-10.5-5.1-10.5-11c0-7.1,5.8-11.8,14.4-11.8c8.1,0,13.9,4.7,14.3,11.4h-6
		c-0.6-3.7-3.8-5.9-8.4-5.9c-4.9,0-8.1,2.3-8.1,5.9c0,2.8,2.1,4.5,7.3,5.7l4.4,1.1c8.1,1.9,11.5,5.2,11.5,11.2
		c0,7.6-5.9,12.4-15.3,12.4C642.9,417.6,637,413,636.6,405.9z"
  />
</svg>
