<svg viewBox="0 0 512 512">
  <path
    d="m374.9 366.091-16.841 16.84-3.126-3.126c-7.086-7.088-18.618-7.087-25.71-.001-7.087 7.087-7.087 18.62.001 25.709 2.908 2.908 5.344 5.378 7.41 7.475 10.747 10.9 13.635 13.83 21.425 13.83 4.855 0 9.42-1.891 12.855-5.323l29.694-29.695c7.087-7.088 7.087-18.621-.001-25.708-7.086-7.089-18.621-7.087-25.707-.001zm15.102 15.101c-33.493 33.494-29.751 30.582-32.778 30.582v.001c-1.558-.59-7.829-7.306-17.393-16.869-1.239-1.239-1.239-3.257-.002-4.494 1.241-1.238 3.258-1.242 4.497-.001l8.43 8.43c2.929 2.927 7.678 2.929 10.606 0l22.145-22.143c1.239-1.241 3.258-1.239 4.495 0 1.239 1.239 1.239 3.256 0 4.494z"
  />
  <path
    d="m163.159 460.85c4.143 0 7.5-3.357 7.5-7.5s-3.357-7.5-7.5-7.5h-39.918c-4.143 0-7.5 3.357-7.5 7.5s3.357 7.5 7.5 7.5z"
  />
  <path
    d="m123.241 293.049c-4.143 0-7.5 3.357-7.5 7.5s3.357 7.5 7.5 7.5h39.918c4.143 0 7.5-3.357 7.5-7.5s-3.357-7.5-7.5-7.5z"
  />
  <path
    d="m348.841 293.049c-4.143 0-7.5 3.357-7.5 7.5s3.357 7.5 7.5 7.5h39.918c4.143 0 7.5-3.357 7.5-7.5s-3.357-7.5-7.5-7.5z"
  />
  <path
    d="m163.159 161.649c4.143 0 7.5-3.357 7.5-7.5s-3.357-7.5-7.5-7.5h-39.918c-4.143 0-7.5 3.357-7.5 7.5s3.357 7.5 7.5 7.5z"
  />
  <path
    d="m388.759 161.649c4.143 0 7.5-3.357 7.5-7.5s-3.357-7.5-7.5-7.5h-39.918c-4.143 0-7.5 3.357-7.5 7.5s3.357 7.5 7.5 7.5z"
  />
  <path
    d="m482.228 84.394h-20.728v-13.982c0-10.818-8.801-19.619-19.619-19.619h-55.581c-4.143 0-7.5 3.357-7.5 7.5s3.357 7.5 7.5 7.5h55.581c2.547 0 4.619 2.072 4.619 4.619v42.962c0 2.547-2.072 4.619-4.619 4.619h-146.161c-2.547 0-4.619-2.072-4.619-4.619v-42.962c0-2.547 2.072-4.619 4.619-4.619h55.58c4.143 0 7.5-3.357 7.5-7.5s-3.357-7.5-7.5-7.5h-55.58c-10.818 0-19.619 8.801-19.619 19.619v13.981h-40.2v-13.981c0-10.818-8.801-19.619-19.619-19.619h-146.163c-10.818 0-19.619 8.801-19.619 19.619v42.962c0 10.818 8.801 19.619 19.619 19.619h146.162c10.818 0 19.619-8.801 19.619-19.619v-13.98h40.2v13.98c0 10.818 8.801 19.619 19.619 19.619h146.161c10.818 0 19.619-8.801 19.619-19.619v-13.98h20.728c8.146 0 14.772 6.626 14.772 14.771v101.855c0 8.146-6.627 14.772-14.772 14.772h-20.727v-13.98c0-10.818-8.801-19.619-19.619-19.619h-146.161c-10.818 0-19.619 8.801-19.619 19.619v13.98h-40.2v-13.98c0-10.818-8.801-19.619-19.619-19.619h-146.163c-10.818 0-19.619 8.801-19.619 19.619v13.98h-20.728c-16.417.001-29.772 13.356-29.772 29.773v108.255c0 16.417 13.355 29.772 29.772 29.772h20.728v13.98c0 10.818 8.801 19.62 19.619 19.62h146.162c10.818 0 19.619-8.802 19.619-19.62v-13.98h59.309c3.755 35.147 33.581 62.614 69.708 62.614 30.99 0 58.673-20.775 67.318-50.521 1.156-3.978-1.132-8.139-5.109-9.295-3.977-1.155-8.138 1.132-9.295 5.109-6.795 23.379-28.554 39.707-52.914 39.707-30.39 0-55.114-24.725-55.114-55.114s24.725-55.114 55.114-55.114c24.36 0 46.119 16.328 52.914 39.707 1.157 3.979 5.325 6.267 9.295 5.109 3.978-1.156 6.266-5.317 5.109-9.295-8.646-29.746-36.328-50.521-67.318-50.521-36.127 0-65.953 27.467-69.708 62.614h-59.309v-13.98c0-10.818-8.801-19.619-19.619-19.619h-146.162c-10.818 0-19.619 8.801-19.619 19.619v13.98h-20.728c-8.146 0-14.772-6.627-14.772-14.772v-108.255c0-8.146 6.627-14.772 14.772-14.772h20.728v13.98c0 10.818 8.801 19.619 19.619 19.619h146.162c10.818 0 19.619-8.801 19.619-19.619v-13.98h40.2v13.98c0 10.818 8.801 19.619 19.619 19.619h146.161c10.818 0 19.619-8.801 19.619-19.619v-13.98h20.728c16.417 0 29.772-13.355 29.772-29.772v-101.856c.001-16.416-13.354-29.771-29.771-29.771zm-261.328 28.98c0 2.547-2.072 4.619-4.619 4.619h-146.162c-2.547 0-4.619-2.072-4.619-4.619v-42.962c0-2.547 2.072-4.619 4.619-4.619h146.162c2.547 0 4.619 2.072 4.619 4.619zm-155.4 256.238c0-2.547 2.072-4.619 4.619-4.619h146.162c2.547 0 4.619 2.072 4.619 4.619v42.961c0 2.548-2.072 4.62-4.619 4.62h-146.162c-2.547 0-4.619-2.072-4.619-4.62zm155.4-109.839c0 2.547-2.072 4.619-4.619 4.619h-146.162c-2.547 0-4.619-2.072-4.619-4.619v-21.461c0-.007.001-.013.001-.019s-.001-.013-.001-.019v-21.461c0-2.547 2.072-4.619 4.619-4.619h146.162c2.547 0 4.619 2.072 4.619 4.619zm225.6 0c0 2.547-2.072 4.619-4.619 4.619h-146.161c-2.547 0-4.619-2.072-4.619-4.619v-42.961c0-2.547 2.072-4.619 4.619-4.619h146.161c2.547 0 4.619 2.072 4.619 4.619z"
  />
</svg>
