<svg viewBox="0 0 512 512">
  <g>
    <path
      d="m252.356 135h-157.204c-4.142 0-7.5 3.358-7.5 7.5s3.358 7.5 7.5 7.5h157.205c4.142 0 7.5-3.358 7.5-7.5s-3.358-7.5-7.501-7.5zm144.989-36.501c-40.668 0-73.753 33.085-73.753 73.752s33.085 73.751 73.753 73.751c40.666 0 73.751-33.085 73.751-73.751 0-40.667-33.085-73.752-73.751-73.752zm0 132.504c-32.396 0-58.753-26.356-58.753-58.751 0-32.396 26.356-58.752 58.753-58.752 32.396 0 58.751 26.356 58.751 58.752 0 32.395-26.356 58.751-58.751 58.751zm0-173.408c-3.983 0-7.946.213-11.875.62v-20.715c0-20.678-16.822-37.5-37.5-37.5h-275.82c-20.678 0-37.5 16.822-37.5 37.5v142.619c-19.35 1.463-34.65 17.663-34.65 37.381v111.882c0 4.142 3.358 7.5 7.5 7.5s7.5-3.358 7.5-7.5v-111.882c0-12.407 10.093-22.5 22.5-22.5h146.34c8.503 0 15.887 5.763 17.954 14.007l5.15 20.62c3.731 14.939 17.094 25.373 32.496 25.373h78.625c.086.083.17.168.257.251l-13.503 23.378c-8.738-1.504-17.89 2.431-22.576 10.545l-59.696 103.397c-11.364 19.683-4.596 44.941 15.086 56.305 9.561 5.52 20.708 6.95 31.277 4.118 10.635-2.85 19.522-9.67 25.027-19.205l59.696-103.398c4.562-7.809 3.584-18-2.15-24.835l13.465-23.319c9.866 2.911 20.283 4.518 31.051 4.644v187.619c0 12.407-10.094 22.5-22.5 22.5h-336c-12.406 0-22.499-10.093-22.499-22.5v-109.75c0-4.142-3.358-7.5-7.5-7.5s-7.5 3.358-7.5 7.5v109.75c0 20.678 16.822 37.5 37.5 37.5h336c20.678 0 37.5-16.822 37.5-37.5v-188.41c56.807-6.773 101-55.238 101-113.839 0-63.221-51.435-114.656-114.655-114.656zm-56.7 265.298-59.696 103.398c-3.501 6.065-9.155 10.403-15.92 12.215-6.765 1.814-13.83.882-19.895-2.619-12.52-7.229-16.825-23.294-9.596-35.814l59.696-103.397c1.921-3.331 6.075-4.279 9.306-2.455l33.561 19.377c.021.012.039.027.06.039.009.005.019.009.029.014 3.174 1.825 4.311 6.066 2.455 9.242zm-1.478-26.001-20.679-11.939 11.527-19.957c6.417 4.672 13.333 8.696 20.656 11.973zm58.178-24.985c-11.741 0-23.012-2.047-33.481-5.793-.004-.001-.008-.003-.013-.004-38.523-13.788-66.163-50.654-66.163-93.858 0-3.845.223-7.721.66-11.52.476-4.115-2.476-7.835-6.591-8.311-4.113-.479-7.836 2.476-8.31 6.591-.504 4.367-.76 8.822-.76 13.239 0 25.325 8.257 48.755 22.215 67.749h-65.462c-8.505 0-15.883-5.76-17.943-14.007l-5.152-20.626c-3.744-14.936-17.11-25.367-32.505-25.367h-134.19v-142.5c0-12.407 10.093-22.5 22.5-22.5h275.82c12.406 0 22.5 10.093 22.5 22.5v23.299c-12.371 2.983-24.207 8.011-35.033 14.981-17.98 11.576-32.354 27.865-41.568 47.105-1.789 3.736-.211 8.215 3.525 10.004 3.732 1.787 8.214.212 10.004-3.525 16.514-34.485 51.82-56.768 89.947-56.768 54.95 0 99.655 44.706 99.655 99.656s-44.705 99.655-99.655 99.655zm-129.989-181.907h-172.204c-4.142 0-7.5 3.358-7.5 7.5s3.358 7.5 7.5 7.5h172.205c4.143 0 7.5-3.358 7.5-7.5s-3.358-7.5-7.501-7.5zm52.5-37.5c0-4.142-3.357-7.5-7.5-7.5h-217.204c-4.142 0-7.5 3.358-7.5 7.5s3.358 7.5 7.5 7.5h217.205c4.142 0 7.499-3.358 7.499-7.5z"
    />
  </g>
</svg>
