<svg enable-background="new 0 0 512 512" viewBox="0 0 512 512"><path d="m490.673 202.45h-41.614v-111.618c0-21.025-17.105-38.13-38.13-38.13h-372.799c-21.025 0-38.13 17.105-38.13 38.13v232.289c0 21.025 17.105 38.129 38.13 38.129h179.113v47.269h-90.373c-4.024 0-7.287 3.262-7.287 7.287s3.262 7.287 7.287 7.287h195.319c4.024 0 7.287-3.262 7.287-7.287s-3.262-7.287-7.287-7.287h-90.373v-47.269h122.281v76.72c0 11.76 9.567 21.327 21.328 21.327h115.249c11.76 0 21.327-9.567 21.327-21.327v-214.193c-.001-11.76-9.568-21.327-21.328-21.327zm-136.577 144.228h-315.966c-12.989 0-23.556-10.567-23.556-23.556v-3.288h339.523v26.844zm0-122.901v81.483h-339.523v-214.428c0-12.99 10.567-23.557 23.556-23.557h372.799c12.99 0 23.557 10.567 23.557 23.557v111.618h-59.061c-11.76 0-21.328 9.567-21.328 21.327zm143.331 214.193c0 3.724-3.03 6.754-6.754 6.754h-115.249c-3.724 0-6.755-3.03-6.755-6.754v-24.294h128.758zm0-38.867h-128.758v-175.326c0-3.724 3.03-6.754 6.755-6.754h115.249c3.724 0 6.754 3.03 6.754 6.754zm-78.222 37.384h25.836c4.024 0 7.287-3.262 7.287-7.287 0-4.024-3.262-7.287-7.287-7.287h-25.836c-4.024 0-7.287 3.262-7.287 7.287.001 4.025 3.263 7.287 7.287 7.287zm25.836-212.059h-25.836c-4.024 0-7.287 3.262-7.287 7.287 0 4.024 3.262 7.287 7.287 7.287h25.836c4.024 0 7.287-3.262 7.287-7.287s-3.263-7.287-7.287-7.287z"/></svg>