<svg viewBox="0 0 512 512">
  <g id="Outline">
    <path
      d="M408,386.745a52.861,52.861,0,0,0-31.581,10.36l-30.762-30.762a24.971,24.971,0,0,0-35.314,35.314L316.686,408H264V357.155a8,8,0,0,0-14-5.292,24,24,0,1,1,0-31.726,8,8,0,0,0,14-5.292V264h35.347a40,40,0,1,0,73.306,0H408V368h16V216h24a32.036,32.036,0,0,0,32-32V115.314l13.657-13.657L482.343,90.343l-16,16A8,8,0,0,0,464,112v72a16.019,16.019,0,0,1-16,16H424V179.314l13.657-13.657-11.314-11.314-36,36a8.97,8.97,0,0,1-12.686-12.686l36-36a8,8,0,0,0,0-11.314,37.3,37.3,0,0,1,0-52.686l40-40L442.343,26.343l-40,40a53.343,53.343,0,0,0-5.233,69.233l-30.767,30.767a24.971,24.971,0,1,0,35.314,35.314L408,195.314V248H357.154a8,8,0,0,0-5.292,14,24,24,0,1,1-31.724,0,8,8,0,0,0-5.292-14H264V212.654a40,40,0,1,0,0-73.308V104H368V88H216V64a32.036,32.036,0,0,0-32-32H115.313L101.657,18.343,90.343,29.657l16,16A8,8,0,0,0,112,48h72a16.019,16.019,0,0,1,16,16V88H179.314L165.657,74.343,154.343,85.657l36,36a8.97,8.97,0,1,1-12.686,12.686l-36-36a8,8,0,0,0-11.314,0,37.254,37.254,0,0,1-52.686,0l-40-40L26.343,69.657l40,40a53.282,53.282,0,0,0,69.238,5.238l30.762,30.762a24.971,24.971,0,0,0,35.314-35.314L195.314,104H248v50.845a8,8,0,0,0,14,5.292,24,24,0,1,1,0,31.726,8,8,0,0,0-14,5.292V248H212.653a40,40,0,1,0-73.306,0H104V144H88V296H64a32.036,32.036,0,0,0-32,32v68.686L18.343,410.343l11.314,11.314,16-16A8,8,0,0,0,48,400V328a16.019,16.019,0,0,1,16-16H88v20.686L74.343,346.343l11.314,11.314,36-36a8.97,8.97,0,1,1,12.686,12.686l-36,36a8,8,0,0,0,0,11.314,37.3,37.3,0,0,1,0,52.686l-40,40,11.314,11.314,40-40a53.343,53.343,0,0,0,5.233-69.233l30.767-30.767a24.971,24.971,0,1,0-35.314-35.314L104,316.686V264h50.846a8,8,0,0,0,5.292-14,24,24,0,1,1,31.724,0,8,8,0,0,0,5.292,14H248v35.346a40,40,0,1,0,0,73.308V408H144v16H296v24a32.036,32.036,0,0,0,32,32h68.687l13.656,13.657,11.314-11.314-16-16A8,8,0,0,0,400,464H328a16.019,16.019,0,0,1-16-16V424h20.686l13.657,13.657,11.314-11.314-36-36a8.97,8.97,0,1,1,12.686-12.686l36,36a8,8,0,0,0,11.314,0,37.254,37.254,0,0,1,52.686,0l40,40,11.314-11.314-40-40A52.908,52.908,0,0,0,408,386.745Z"
    />
  </g>
</svg>
